# xmcd CD database file
#
# Track frame offsets:
#	183
#	11013
#	28660
#	44285
#	60573
#	73510
#	93035
#	110830
#	124863
#	146515
#	166585
#	183038
#	202013
#	212565
#
# Disc length: 3106 seconds
#
# Revision: 9
# Processed by: cddbd v1.5.2PL0 Copyright (c) Steve Scherf et al.
# Submitted via: CDex 1.81
#
DISCID=bb0c200e
DTITLE=Garth Brooks - Ropin' The Wind [CDP 7 98468 2]
DYEAR=1992
DGENRE=Country
TTITLE0=Against The Grain
TTITLE1=Rodeo
TTITLE2=What She's Doing Now
TTITLE3=Burning Bridges
TTITLE4=Papa Loved Mama
TTITLE5=Shameless
TTITLE6=Cold Shoulder
TTITLE7=We Bury The Hatchet
TTITLE8=In Lonesome Dove
TTITLE9=The River
TTITLE10=Alabama Clay
TTITLE11=Everytime That It Rains
TTITLE12=Nobody Gets Off In This Town
TTITLE13=Cowboy Bill
EXTD=YEAR: 1992
EXTT0=
EXTT1=
EXTT2=
EXTT3=
EXTT4=
EXTT5=
EXTT6=
EXTT7=
EXTT8=
EXTT9=
EXTT10=
EXTT11=
EXTT12=
EXTT13=
PLAYORDER=
